{"title":"The Doors: Live In Europe 1968 DVDRip XviD AC3 5.1 titler","uid":8942237,"size":971636614,"categoryP":"video","categoryS":"movies","magnet":"?xt=urn:btih:968d0ad88b1337a6418d1d6f2b72a3abaf899fc1&amp;dn=The+Doors%3A+Live+In+Europe+1968+DVDRip+XviD+AC3+5.1+titler&amp;tr=udp%3A%2F%2Ftracker.openbittorrent.com%3A80&amp;tr=udp%3A%2F%2Fopen.demonii.com%3A1337&amp;tr=udp%3A%2F%2Ftracker.coppersurfer.tk%3A6969&amp;tr=udp%3A%2F%2Fexodus.desync.com%3A6969","seeders":1,"leechers":0,"uploader":"movieZ.freak","files":5,"time":1379691258,"description":"SOURCE: DVD5\n\n &lt;a href=&quot;\nhttp://www.imdb.com/title/tt0167904/&quot; rel=&quot;nofollow&quot; target=&quot;_NEW&quot;&gt;\nhttp://www.imdb.com/title/tt0167904/&lt;/a&gt;\n\n &lt;a href=&quot;\nhttp://www.rottentomatoes.com/m/doors_the_live_in_europe_1968/&quot; rel=&quot;nofollow&quot; target=&quot;_NEW&quot;&gt;\nhttp://www.rottentomatoes.com/m/doors_the_live_in_europe_1968/&lt;/a&gt;\n\n\n\n- SAMPLE: Yes\n\n\n- LANGUAGE: English, of course :)\n\n\n\nDVD MENU / COVER:\n--------------------------- &lt;a href=&quot;\nhttp://someimage.com/zKZ9&quot; rel=&quot;nofollow&quot; target=&quot;_NEW&quot;&gt;\nhttp://someimage.com/zKZ9&lt;/a&gt;\n\n\n\nSCREENSHOTS:\n-------------------- &lt;a href=&quot;\nhttp://someimage.com/iyeq&quot; rel=&quot;nofollow&quot; target=&quot;_NEW&quot;&gt;\nhttp://someimage.com/iyeq&lt;/a&gt;\n\n\n\nDIRECTED BY: Paul Justman, Ray Manzarek, John Densmore (co-director)\n\n\n\nDURATION: 58mn 10s\n\n\n\nJim Morrison (vocals)\n\nRay Manzarek (keyboards)\n\nRobby Krieger (guitar)\n\nJohn Densmore (drums)\n\n\nPaul Kantner (Host)\n\nGrace Slick (Host)\n\n\nINFO:\n----------\nRare and never seen before film footage captures the legendary music of The Doors-Live!!! Filmed during their European Tour in 1968, The Doors swept through the cities of London, Stockholm, Frankfurt and Amsterdam, leaving devastated audiences in their wake. This collection of rare live performances is introduced and narrated by Paul Kantner and Grace Slick who, as members of Jefferson Airplane, shared the bill on this historic tour.\n\n\nTrack Listing:\n---------------\n01 - Light My Fire\n02 - Love Me Two Times\n03 - Back Door Man\n04 - Spanish Caravan\n05 - Hello, I Love You\n06 - When the Music's Over\n07 - Unknown Soldier\n08 - Light My Fire (II)\n09 - Five To One\n10 - Alabama Song\n\n\n\nGeneral\n---------\nFormat : AVI\nFormat/Info : Audio Video Interleave\nFile size : 900 MiB\nDuration : 58mn 10s\nOverall bit rate : 2163 Kbps\nWriting application : VirtualDubMod 1.5.4.1\nWriting library : VirtualDubMod build 2178\n\n\nVideo\n-------\nFormat : MPEG-4 Visual\nFormat profile : Advanced Simple@L5\nFormat settings, BVOP : 1\nFormat settings, QPel : No\nFormat settings, GMC : No warppoints\nFormat settings, Matrix : Custom\nCodec ID : XVID\nCodec ID/Hint : XviD\nDuration : 58mn 10s\nBit rate : 1707 Kbps\nWidth : 560 pixels\nHeight : 416 pixels\nDisplay aspect ratio : 4:3\nFrame rate : 29.970 fps\nColor space : YUV\nChroma subsampling : 4:2:0\nBit depth : 8 bits\nScan type : Progressive\nCompression mode : Lossy\nBits/(Pixel*Frame) : 0.245\nStream size : 711 MiB (79%)\nWriting library : XviD 64\n\n\nAudio\n--------\nFormat : AC-3\nFormat/Info : Audio Coding 3\nMode extension : CM (complete main)\nFormat settings, Endianness : Big\nCodec ID : 2000\nDuration : 58mn 10s\nBit rate mode : Constant\nBit rate : 448 Kbps\nChannel(s) : 6 channels\nChannel positions : Front: L C R, Side: L R, LFE\nSampling rate : 48.0 KHz\nBit depth : 16 bits\nCompression mode : Lossy\nStream size : 186 MiB (21%)\nAlignment : Split accross interleaves\nInterleave, duration : 96 ms (2.88 video frames)\nInterleave, preload duration : 96 ms\nLanguage : English","torrent":{"xt":"urn:btih:968d0ad88b1337a6418d1d6f2b72a3abaf899fc1","amp;dn":"The+Doors%3A+Live+In+Europe+1968+DVDRip+XviD+AC3+5.1+titler","amp;tr":["udp%3A%2F%2Ftracker.openbittorrent.com%3A80","udp%3A%2F%2Fopen.demonii.com%3A1337","udp%3A%2F%2Ftracker.coppersurfer.tk%3A6969","udp%3A%2F%2Fexodus.desync.com%3A6969"],"infoHash":"968d0ad88b1337a6418d1d6f2b72a3abaf899fc1","infoHashBuffer":{"type":"Buffer","data":[150,141,10,216,139,19,55,166,65,141,29,111,43,114,163,171,175,137,159,193]},"announce":[],"urlList":[]}}